<?xml version="1.0" encoding="UTF-8" standalone="no"?>
<!-- Generator: Adobe Illustrator 21.0.0, SVG Export Plug-In . SVG Version: 6.00 Build 0)  -->

<svg
   xmlns:dc="http://purl.org/dc/elements/1.1/"
   xmlns:cc="http://creativecommons.org/ns#"
   xmlns:rdf="http://www.w3.org/1999/02/22-rdf-syntax-ns#"
   xmlns:svg="http://www.w3.org/2000/svg"
   xmlns="http://www.w3.org/2000/svg"
   xmlns:sodipodi="http://sodipodi.sourceforge.net/DTD/sodipodi-0.dtd"
   xmlns:inkscape="http://www.inkscape.org/namespaces/inkscape"
   version="1.1"
   id="Layer_1"
   x="0px"
   y="0px"
   viewBox="0 0 1365.8 1100.9"
   style="enable-background:new 0 0 1365.8 1100.9;"
   xml:space="preserve"
   sodipodi:docname="about-bg-shape.svg"
   inkscape:version="0.92.5 (2060ec1f9f, 2020-04-08)"><metadata
   id="metadata900"><rdf:RDF><cc:Work
       rdf:about=""><dc:format>image/svg+xml</dc:format><dc:type
         rdf:resource="http://purl.org/dc/dcmitype/StillImage" /></cc:Work></rdf:RDF></metadata><defs
   id="defs898" /><sodipodi:namedview
   pagecolor="#ffffff"
   bordercolor="#666666"
   borderopacity="1"
   objecttolerance="10"
   gridtolerance="10"
   guidetolerance="10"
   inkscape:pageopacity="0"
   inkscape:pageshadow="2"
   inkscape:window-width="1920"
   inkscape:window-height="997"
   id="namedview896"
   showgrid="false"
   inkscape:zoom="0.74121172"
   inkscape:cx="682.90002"
   inkscape:cy="550.45001"
   inkscape:window-x="0"
   inkscape:window-y="28"
   inkscape:window-maximized="1"
   inkscape:current-layer="Layer_1" />
<style
   type="text/css"
   id="style891">
	.st0{fill:#F6F6F6;}
</style>
<path
   class="st0"
   d="M1366,555.9c0,182.6,0,363.3,0,545.9c-454.6,0-909.2,0-1363.8,0c0-321.6,0-641.3,0-962.9  c1.4-1.1,2.9-2.1,4.2-3.4c32.1-30.4,66.2-58.1,104.1-80.9C150,30.9,191.8,13.1,237.7,6.1c7.4-1.1,14.7-2,22.1-3.1  c11.3,0,22.6,0,33.9,0c1.1,0.3,2.2,0.8,3.3,0.9C336,7,372.1,19.2,406,38.6c43.3,24.8,79.3,58.2,111,96.4  c25.1,30.3,48.9,61.5,74,91.8c51.7,62.6,106.5,122.3,166.1,177.4c58.6,54.2,120.8,103.6,190.6,142.7  c58.7,32.9,120.4,57.4,187.7,65.5c61.3,7.4,120.6-0.1,176.8-26.3C1330.7,577.5,1348.1,566.1,1366,555.9z"
   id="path893"
   style="fill:#ffdd55" />
</svg>