<?xml version="1.0" encoding="UTF-8" standalone="no"?>
<!-- Generator: Adobe Illustrator 21.0.0, SVG Export Plug-In . SVG Version: 6.00 Build 0)  -->

<svg
   xmlns:dc="http://purl.org/dc/elements/1.1/"
   xmlns:cc="http://creativecommons.org/ns#"
   xmlns:rdf="http://www.w3.org/1999/02/22-rdf-syntax-ns#"
   xmlns:svg="http://www.w3.org/2000/svg"
   xmlns="http://www.w3.org/2000/svg"
   xmlns:sodipodi="http://sodipodi.sourceforge.net/DTD/sodipodi-0.dtd"
   xmlns:inkscape="http://www.inkscape.org/namespaces/inkscape"
   version="1.1"
   id="Layer_1"
   x="0px"
   y="0px"
   viewBox="0 0 1211 370"
   style="enable-background:new 0 0 1211 370;"
   xml:space="preserve"
   sodipodi:docname="hero-bg-shape-1.svg"
   inkscape:version="0.92.5 (2060ec1f9f, 2020-04-08)"><metadata
   id="metadata11"><rdf:RDF><cc:Work
       rdf:about=""><dc:format>image/svg+xml</dc:format><dc:type
         rdf:resource="http://purl.org/dc/dcmitype/StillImage" /></cc:Work></rdf:RDF></metadata><defs
   id="defs9" /><sodipodi:namedview
   pagecolor="#ffffff"
   bordercolor="#666666"
   borderopacity="1"
   objecttolerance="10"
   gridtolerance="10"
   guidetolerance="10"
   inkscape:pageopacity="0"
   inkscape:pageshadow="2"
   inkscape:window-width="1920"
   inkscape:window-height="997"
   id="namedview7"
   showgrid="false"
   inkscape:zoom="0.27828241"
   inkscape:cx="605.5"
   inkscape:cy="-389.95549"
   inkscape:window-x="0"
   inkscape:window-y="28"
   inkscape:window-maximized="1"
   inkscape:current-layer="Layer_1" />
<style
   type="text/css"
   id="style2">
	.st0{fill:#FFFFFF;}
</style>
<path
   class="st0"
   d="M0,318c0,2,6,5.9,7.5,6.9c34.3,22.6,70.4,4.6,99.9-16.1c58.4-40.9,132.8-26.7,198-14.7  c22.1,4.1,44.8,8.8,67.2,4.6c31.5-5.9,55-31.3,78-51.4c26.7-23.4,56.3-45.1,87-62.8c12.9-7.4,26.2-14,40.1-19.3  c75.8-29,152.8,1.9,227.6,18.9c4,0.9,8,1.8,11.9,2.6c85.3,18.5,132.7-45,185.5-99.5c29.2-30.1,66.6-51.8,111.2-65.5  c22.1-6.8,45-11.1,68.6-12.7c9.5-0.7,19-1.3,28.5-1.9c0,120.9,0,241.9,0,362.9c-403.8,0-807.5,0-1211.2,0C0,370,0,318,0,318z"
   id="path4"
   style="fill:#ffcc00" />
</svg>